<?xml version="1.0" encoding="UTF-8"?> <!-- Generator: Adobe Illustrator 23.1.1, SVG Export Plug-In . SVG Version: 6.00 Build 0) --> <svg xmlns="http://www.w3.org/2000/svg" xmlns:xlink="http://www.w3.org/1999/xlink" id="Слой_1" x="0px" y="0px" viewBox="0 0 800 665" style="enable-background:new 0 0 800 665;" xml:space="preserve"> <style type="text/css"> .st0{fill:#40403F;} </style> <path class="st0" d="M52.4,288.3c0,0,350.5-143.8,472-194.5C571,73.6,729,8.8,729,8.8s72.9-28.4,66.9,40.5 c-2,28.4-18.2,127.6-34.4,235c-24.3,151.9-50.6,318-50.6,318s-4.1,46.6-38.5,54.7c-34.4,8.1-91.2-28.4-101.3-36.5 c-8.1-6.1-151.9-97.2-204.6-141.8c-14.2-12.2-30.4-36.5,2-64.8c72.9-66.9,160-149.9,212.7-202.6c24.3-24.3,48.6-81-52.7-12.2 c-143.8,99.3-285.6,192.4-285.6,192.4s-32.4,20.3-93.2,2c-60.8-18.2-131.7-42.5-131.7-42.5S-30.7,320.8,52.4,288.3L52.4,288.3z"></path> </svg> 